<?xml version="1.0" encoding="iso-8859-1"?>
<!-- Generator: Adobe Illustrator 19.0.0, SVG Export Plug-In . SVG Version: 6.00 Build 0)  -->
<svg version="1.1" id="Capa_1" xmlns="http://www.w3.org/2000/svg" xmlns:xlink="http://www.w3.org/1999/xlink" x="0px" y="0px"
	 viewBox="0 0 512 512" style="enable-background:new 0 0 512 512;" xml:space="preserve">
<g>
	<g>
		<g>
			<path d="M373.333,426.667H138.667c-5.896,0-10.667,4.771-10.667,10.667c0,5.896,4.771,10.667,10.667,10.667h234.667
				c5.896,0,10.667-4.771,10.667-10.667C384,431.438,379.229,426.667,373.333,426.667z"/>
			<path d="M469.333,64H42.667C19.146,64,0,83.135,0,106.667v256c0,23.531,19.146,42.667,42.667,42.667h426.667
				c23.521,0,42.667-19.135,42.667-42.667v-256C512,83.135,492.854,64,469.333,64z M336.042,243.885l-128,74.667
				c-1.667,0.958-3.521,1.448-5.375,1.448c-1.833,0-3.667-0.469-5.313-1.417c-3.313-1.906-5.354-5.427-5.354-9.25V160
				c0-3.823,2.042-7.344,5.354-9.25c3.333-1.896,7.396-1.865,10.688,0.031l128,74.667c3.271,1.917,5.292,5.427,5.292,9.219
				C341.333,238.458,339.313,241.969,336.042,243.885z"/>
		</g>
	</g>
</g>
<g>
</g>
<g>
</g>
<g>
</g>
<g>
</g>
<g>
</g>
<g>
</g>
<g>
</g>
<g>
</g>
<g>
</g>
<g>
</g>
<g>
</g>
<g>
</g>
<g>
</g>
<g>
</g>
<g>
</g>
</svg>
